<mxfile host="app.diagrams.net" modified="2023-08-10T12:33:16.823Z" agent="Mozilla/5.0 (Windows NT 10.0; Win64; x64) AppleWebKit/537.36 (KHTML, like Gecko) Chrome/115.0.0.0 Safari/537.36" etag="eZ_RRlkUvWl9GHjV3aDB" version="21.6.7" type="github">
  <diagram name="Seite-1" id="8O7nqMV1pDiucMTswJLM">
    <mxGraphModel dx="4274" dy="3286" grid="1" gridSize="10" guides="1" tooltips="1" connect="1" arrows="1" fold="1" page="1" pageScale="1" pageWidth="827" pageHeight="1169" math="0" shadow="0">
      <root>
        <mxCell id="0" />
        <mxCell id="1" parent="0" />
        <mxCell id="Xl2gw3tBLQ9xComEteI--1" value="" style="group" vertex="1" connectable="0" parent="1">
          <mxGeometry x="-2470" y="-1566.18" width="793.59" height="386.18" as="geometry" />
        </mxCell>
        <mxCell id="Xl2gw3tBLQ9xComEteI--2" value="Medikation des Zwischenfalls" style="html=1;whiteSpace=wrap;container=1;verticalAlign=top;align=left;fontStyle=1;fontSize=22;" vertex="1" parent="Xl2gw3tBLQ9xComEteI--1">
          <mxGeometry x="1.3000000000000003" y="-5.864836718347732" width="792.2900000000001" height="392.0448367183477" as="geometry" />
        </mxCell>
        <mxCell id="Xl2gw3tBLQ9xComEteI--3" value="&lt;font style=&quot;font-size: 16px;&quot;&gt;Name des Medikaments&lt;/font&gt;" style="html=1;whiteSpace=wrap;container=1;align=left;movable=0;resizable=0;rotatable=0;deletable=0;editable=0;locked=1;connectable=0;fillColor=#ffcccc;strokeColor=#36393d;" vertex="1" parent="Xl2gw3tBLQ9xComEteI--2">
          <mxGeometry x="10.81" y="50" width="758.37" height="50" as="geometry" />
        </mxCell>
        <mxCell id="Xl2gw3tBLQ9xComEteI--30" value="Auswahlwert-Feldgruppe" style="strokeWidth=1;shadow=0;dashed=0;align=center;html=1;shape=mxgraph.mockup.forms.comboBox;strokeColor=#999999;fillColor=#ddeeff;align=left;fillColor2=#aaddff;mainText=;fontColor=#666666;fontSize=17;spacingLeft=3;container=0;movable=0;resizable=0;rotatable=0;deletable=0;editable=0;locked=1;connectable=0;" vertex="1" parent="Xl2gw3tBLQ9xComEteI--2">
          <mxGeometry x="211.28999999999982" y="60.00054545454538" width="537.41" height="30" as="geometry" />
        </mxCell>
        <mxCell id="Xl2gw3tBLQ9xComEteI--42" value="&lt;font style=&quot;font-size: 16px;&quot;&gt;War die Verschreibung auf Reserve?&amp;nbsp;&lt;/font&gt;" style="html=1;whiteSpace=wrap;container=1;align=left;movable=1;resizable=1;rotatable=1;deletable=1;editable=1;locked=0;connectable=1;" vertex="1" parent="Xl2gw3tBLQ9xComEteI--2">
          <mxGeometry x="10.809999999999945" y="112.046654900166" width="758.37" height="50" as="geometry" />
        </mxCell>
        <mxCell id="Xl2gw3tBLQ9xComEteI--43" value="Ja" style="strokeWidth=1;shadow=0;dashed=0;align=center;html=1;shape=mxgraph.mockup.forms.rrect;rSize=0;fillColor=#eeeeee;strokeColor=#999999;gradientColor=#cccccc;align=left;spacingLeft=4;fontSize=17;fontColor=#666666;labelPosition=right;" vertex="1" parent="Xl2gw3tBLQ9xComEteI--42">
          <mxGeometry x="347.8899999999999" y="16" width="15" height="15" as="geometry" />
        </mxCell>
        <mxCell id="Xl2gw3tBLQ9xComEteI--44" value="Nein" style="strokeWidth=1;shadow=0;dashed=0;align=center;html=1;shape=mxgraph.mockup.forms.rrect;rSize=0;fillColor=#eeeeee;strokeColor=#999999;gradientColor=#cccccc;align=left;spacingLeft=4;fontSize=17;fontColor=#666666;labelPosition=right;" vertex="1" parent="Xl2gw3tBLQ9xComEteI--42">
          <mxGeometry x="417.8899999999999" y="16" width="15" height="15" as="geometry" />
        </mxCell>
        <mxCell id="Xl2gw3tBLQ9xComEteI--36" value="" style="html=1;whiteSpace=wrap;container=0;verticalAlign=top;align=left;fontStyle=1;fontSize=22;" vertex="1" parent="1">
          <mxGeometry x="-1428.7" y="-1520.0005454545453" width="780.0000000000001" height="108.11054545454546" as="geometry" />
        </mxCell>
        <mxCell id="Xl2gw3tBLQ9xComEteI--37" value="&lt;font style=&quot;font-size: 16px;&quot;&gt;Kombimedikament mit&lt;/font&gt;" style="html=1;whiteSpace=wrap;container=1;align=left;movable=1;resizable=1;rotatable=1;deletable=1;editable=1;locked=0;connectable=1;" vertex="1" parent="1">
          <mxGeometry x="-1420" y="-1510.0005454545453" width="758.37" height="50" as="geometry" />
        </mxCell>
        <mxCell id="Xl2gw3tBLQ9xComEteI--38" value="&lt;table&gt;&lt;tbody&gt;&lt;tr&gt;&lt;td&gt;&lt;br&gt;&lt;/td&gt;&lt;/tr&gt;&lt;tr&gt;&lt;td&gt;&lt;br&gt;&lt;/td&gt;&lt;/tr&gt;&lt;tr&gt;&lt;td&gt;&lt;br&gt;&lt;/td&gt;&lt;/tr&gt;&lt;tr&gt;&lt;td&gt;&lt;br&gt;&lt;/td&gt;&lt;/tr&gt;&lt;tr&gt;&lt;td&gt;&lt;br&gt;&lt;/td&gt;&lt;/tr&gt;&lt;/tbody&gt;&lt;/table&gt;" style="strokeWidth=1;shadow=0;dashed=0;align=center;html=1;shape=mxgraph.mockup.forms.comboBox;strokeColor=#999999;fillColor=#ddeeff;align=left;fillColor2=#aaddff;mainText=;fontColor=#666666;fontSize=17;spacingLeft=3;container=0;movable=1;resizable=1;rotatable=1;deletable=1;editable=1;locked=0;connectable=1;" vertex="1" parent="Xl2gw3tBLQ9xComEteI--37">
          <mxGeometry x="200" y="10.000545454545318" width="537.41" height="30" as="geometry" />
        </mxCell>
        <mxCell id="Xl2gw3tBLQ9xComEteI--39" value="&lt;font style=&quot;font-size: 18px;&quot;&gt;Rosuvastatin&lt;/font&gt;" style="endArrow=classic;html=1;rounded=0;exitX=1;exitY=0.5;exitDx=0;exitDy=0;entryX=-0.004;entryY=0.592;entryDx=0;entryDy=0;entryPerimeter=0;" edge="1" parent="1" source="Xl2gw3tBLQ9xComEteI--3" target="Xl2gw3tBLQ9xComEteI--36">
          <mxGeometry width="50" height="50" relative="1" as="geometry">
            <mxPoint x="-1480" y="-1500" as="sourcePoint" />
            <mxPoint x="-1330" y="-1610" as="targetPoint" />
          </mxGeometry>
        </mxCell>
        <mxCell id="Xl2gw3tBLQ9xComEteI--40" value="" style="html=1;whiteSpace=wrap;container=0;verticalAlign=top;align=left;fontStyle=1;fontSize=22;" vertex="1" parent="1">
          <mxGeometry x="-1430.82" y="-1780.0005454545453" width="780.0000000000001" height="108.11054545454546" as="geometry" />
        </mxCell>
        <mxCell id="Xl2gw3tBLQ9xComEteI--41" value="&lt;font style=&quot;font-size: 18px;&quot;&gt;Methotrexat&lt;/font&gt;" style="endArrow=classic;html=1;rounded=0;exitX=1;exitY=0.5;exitDx=0;exitDy=0;entryX=0;entryY=0.5;entryDx=0;entryDy=0;" edge="1" parent="1" source="Xl2gw3tBLQ9xComEteI--3" target="Xl2gw3tBLQ9xComEteI--40">
          <mxGeometry width="50" height="50" relative="1" as="geometry">
            <mxPoint x="-1654" y="-1640" as="sourcePoint" />
            <mxPoint x="-1386" y="-1603" as="targetPoint" />
          </mxGeometry>
        </mxCell>
      </root>
    </mxGraphModel>
  </diagram>
</mxfile>
